<svg width="40" height="40" viewBox="0 0 28 29" fill="none" xmlns="http://www.w3.org/2000/svg">
<path fill-rule="evenodd" clip-rule="evenodd" d="M1.3341 14.6276C2.44599 14.5236 3.43162 15.3413 3.53556 16.454C3.95447 20.9384 7.31587 24.4323 11.4529 24.9548C12.5609 25.0947 13.3457 26.1069 13.2059 27.2157C13.0661 28.3245 12.0546 29.1099 10.9466 28.97C4.82792 28.1973 0.09468 23.1001 -0.490965 16.8307C-0.594907 15.718 0.222201 14.7316 1.3341 14.6276Z" fill="#111827"/>
<path fill-rule="evenodd" clip-rule="evenodd" d="M13.218 1.86813C13.3033 0.753826 14.2751 -0.0803134 15.3886 0.0050299C21.8273 0.498527 26.8834 5.75044 27.4911 12.253C27.5951 13.3657 26.778 14.3521 25.6661 14.4562C24.5542 14.5603 23.5686 13.7426 23.4646 12.6299C23.0289 7.96739 19.4339 4.37401 15.0798 4.04029C13.9663 3.95494 13.1328 2.98244 13.218 1.86813Z" fill="#111827"/>
<path fill-rule="evenodd" clip-rule="evenodd" d="M14.3075 7.01036C14.4199 8.12225 13.6104 9.11484 12.4993 9.22737C10.4863 9.43126 8.78117 11.1001 8.52199 13.3285C8.39288 14.4385 7.38898 15.2337 6.27973 15.1045C5.17048 14.9753 4.37591 13.9706 4.50502 12.8606C4.97054 8.8581 8.07951 5.60728 12.0921 5.20087C13.2032 5.08834 14.195 5.89848 14.3075 7.01036Z" fill="#111827"/>
<path fill-rule="evenodd" clip-rule="evenodd" d="M20.6295 13.5271C21.7435 13.6061 22.5825 14.5738 22.5036 15.6886C22.206 19.8931 19.0143 23.3611 14.8533 23.7832C13.7423 23.8959 12.7503 23.0859 12.6377 21.9741C12.525 20.8622 13.3344 19.8695 14.4455 19.7568C16.5399 19.5443 18.303 17.756 18.4696 15.4026C18.5486 14.2878 19.5156 13.4481 20.6295 13.5271Z" fill="#111827"/>
</svg>
